<?xml version="1.0" encoding="UTF-8" standalone="no"?>
<!-- Created with Inkscape (http://www.inkscape.org/) -->

<svg
   xmlns:dc="http://purl.org/dc/elements/1.1/"
   xmlns:cc="http://creativecommons.org/ns#"
   xmlns:rdf="http://www.w3.org/1999/02/22-rdf-syntax-ns#"
   xmlns:svg="http://www.w3.org/2000/svg"
   xmlns="http://www.w3.org/2000/svg"
   xmlns:sodipodi="http://sodipodi.sourceforge.net/DTD/sodipodi-0.dtd"
   xmlns:inkscape="http://www.inkscape.org/namespaces/inkscape"
   width="1000"
   height="500"
   viewBox="0 0 1000 500.00001"
   id="svg2"
   version="1.1"
   inkscape:version="0.91 r13725"
   sodipodi:docname="halley_logo.svg"
   inkscape:export-filename="C:\Users\amz\Desktop\halley_logo_small.png"
   inkscape:export-xdpi="81.910004"
   inkscape:export-ydpi="81.910004">
  <title
     id="title3349">Halley Logo</title>
  <defs
     id="defs4" />
  <sodipodi:namedview
     id="base"
     pagecolor="#ffffff"
     bordercolor="#666666"
     borderopacity="1.0"
     inkscape:pageopacity="0.0"
     inkscape:pageshadow="2"
     inkscape:zoom="1.4"
     inkscape:cx="502.4047"
     inkscape:cy="254.0067"
     inkscape:document-units="px"
     inkscape:current-layer="g3346"
     showgrid="false"
     inkscape:window-width="2560"
     inkscape:window-height="1377"
     inkscape:window-x="1912"
     inkscape:window-y="-8"
     inkscape:window-maximized="1"
     units="px"
     showguides="false" />
  <metadata
     id="metadata7">
    <rdf:RDF>
      <cc:Work
         rdf:about="">
        <dc:format>image/svg+xml</dc:format>
        <dc:type
           rdf:resource="http://purl.org/dc/dcmitype/StillImage" />
        <dc:title>Halley Logo</dc:title>
      </cc:Work>
    </rdf:RDF>
  </metadata>
  <g
     inkscape:label="Layer 1"
     inkscape:groupmode="layer"
     id="layer1"
     transform="translate(0,-552.36213)">
    <g
       transform="matrix(1.25,0,0,-1.25,-0.42089966,664.06263)"
       inkscape:label="halley2"
       id="g3344">
      <g
         transform="scale(1,-1)"
         id="g3346">
        <path
           inkscape:connector-curvature="0"
           id="path3352"
           style="fill:#fc2847;fill-opacity:1;fill-rule:nonzero;stroke:none"
           d="m 703.29638,180.4926 -14.97329,72.86058 33.95898,0 37.78026,-199.741124 -32.98448,0 -17.66963,95.193364 -39.77315,0 -15.16756,0 c -2.67599,0 -4.75662,-0.90405 -6.24814,-2.72156 -1.48997,-1.81123 -1.99917,-3.92381 -1.52757,-6.34402 l 16.02144,-86.127784 -32.98605,0 -20.25946,108.791744 c -0.94474,4.98797 0.0799,9.25393 3.0614,12.80734 2.9815,3.55342 7.14745,5.32384 12.48532,5.32384 l 44.62062,-0.0236 z"
           sodipodi:nodetypes="cccccccscccccsccc" />
        <path
           inkscape:connector-curvature="0"
           id="path3372"
           style="fill:#fc2847;fill-opacity:1;fill-rule:nonzero;stroke:none"
           d="m 243.56768,128.57265 c -2.66972,0 -5.06212,0.90719 -7.17877,2.71842 -2.11667,1.81909 -3.41157,3.93324 -3.87768,6.34717 0,0 -0.47237,2.2664 -0.47237,2.2664 -0.47236,2.42021 0.0367,4.53279 1.52836,6.34402 1.48369,1.81751 3.56432,2.72156 6.23246,2.72156 0,0 56.45967,0 56.45967,0 0,0 3.79228,-20.39757 3.79228,-20.39757 0,0 -56.48395,0 -56.48395,0 z m -33.20538,52.12713 c -5.33787,0 -9.49833,-1.77042 -12.48611,-5.32383 -2.98148,-3.55342 -4.00691,-7.8194 -3.06218,-12.80734 0,0 8.94606,-47.59748 8.94606,-47.59748 0.94474,-4.98168 3.57138,-9.24765 7.89008,-12.80106 4.3195,-3.553415 9.06906,-5.330121 14.24633,-5.330121 0,0 80.0633,0 80.0633,0 0,0 0.42301,-2.283648 0.42301,-2.283648 0.46768,-2.409231 -0.0423,-4.521809 -1.53304,-6.333038 -1.49153,-1.806536 -3.57138,-2.715293 -6.23403,-2.715293 0,0 -89.43161,0 -89.43161,0 0,0 5.89014,-31.731112 5.89014,-31.731112 0,0 113.09086,0 113.09086,0 5.33787,0 9.49757,1.776706 12.48532,5.330119 2.98229,3.551838 4.00693,7.819376 3.0614,12.801055 0,0 -20.25946,108.791748 -20.25946,108.791748 0,0 -113.09007,0 -113.09007,0 z" />
        <path
           inkscape:connector-curvature="0"
           id="path3376"
           style="fill:#fc2847;fill-opacity:1;fill-rule:nonzero;stroke:none"
           d="m 371.08427,43.968883 c 0,0 33.10668,0 33.10668,0 0,0 -27.80486,149.588457 -27.80486,149.588457 0,0 -33.10198,0 -33.10198,0 0,0 27.80016,-149.588457 27.80016,-149.588457 z" />
        <path
           inkscape:connector-curvature="0"
           id="path3380"
           style="fill:#fc2847;fill-opacity:1;fill-rule:nonzero;stroke:none"
           d="m 424.3329,43.968883 c 0,0 33.10668,0 33.10668,0 0,0 -27.80641,149.588457 -27.80641,149.588457 0,0 -33.10043,0 -33.10043,0 0,0 27.80016,-149.588457 27.80016,-149.588457 z" />
        <path
           inkscape:connector-curvature="0"
           id="path3388"
           style="fill:#fc2847;fill-opacity:1;fill-rule:nonzero;stroke:none"
           d="m 88.636364,82.621608 56.545046,0 c 2.67599,0 4.7566,0.904047 6.24814,2.721561 1.48996,1.811245 1.99915,3.923823 1.52757,6.344034 l -16.02144,86.127787 32.98605,0 20.25945,-108.791745 c 0.94473,-4.987964 -0.0799,-9.253943 -3.06141,-12.807339 -2.98148,-3.553413 -7.14743,-5.323835 -12.4853,-5.323835 l -79.886271,0.04163 14.973291,-72.859796 -33.958197,0 -20.74828,109.69107 -17.032763,90.050015 32.984477,0 16.714719,-90.050031 z"
           sodipodi:nodetypes="cscccccsccccccccc" />
        <path
           inkscape:connector-curvature="0"
           id="path3372-9"
           style="fill:#fc2847;fill-opacity:1;fill-rule:nonzero;stroke:none"
           d="m 556.14543,105.38416 c 2.66971,0 5.06212,-0.9072 7.17877,-2.71843 2.11666,-1.81909 3.41157,-3.933244 3.87768,-6.347171 0,0 0.47236,-2.266403 0.47236,-2.266403 0.47237,-2.420208 -0.0367,-4.532786 -1.52835,-6.344015 -1.48369,-1.817513 -3.56433,-2.721561 -6.23247,-2.721561 0,0 -56.45966,0 -56.45966,0 0,0 -3.79228,20.39758 -3.79228,20.39758 0,0 56.48395,0 56.48395,0 z m 33.20538,-52.127133 c 5.33787,0 9.49833,1.770422 12.4861,5.323835 2.98149,3.553412 4.00691,7.819391 3.06218,12.807339 0,0 -8.94605,47.597479 -8.94605,47.597479 -0.94475,4.98168 -3.57138,9.24764 -7.89008,12.80105 -4.3195,3.55341 -9.06906,5.33012 -14.24634,5.33012 0,0 -80.06329,0 -80.06329,0 0,0 -0.42302,2.28365 -0.42302,2.28365 -0.46768,2.40923 0.0424,4.52181 1.53304,6.33304 1.49154,1.80653 3.57139,2.71529 6.23404,2.71529 0,0 89.43161,0 89.43161,0 0,0 -5.89015,31.73112 -5.89015,31.73112 0,0 -113.09086,0 -113.09086,0 -5.33788,0 -9.49756,-1.77671 -12.48533,-5.33012 -2.98227,-3.55184 -4.00693,-7.81938 -3.0614,-12.80106 0,0 20.25947,-108.791743 20.25947,-108.791743 0,0 113.09008,0 113.09008,0 z" />
      </g>
    </g>
  </g>
</svg>
