<?xml version="1.0" encoding="UTF-8" standalone="no"?>
<!-- Created with Inkscape (http://www.inkscape.org/) -->

<svg
   xmlns:dc="http://purl.org/dc/elements/1.1/"
   xmlns:cc="http://creativecommons.org/ns#"
   xmlns:rdf="http://www.w3.org/1999/02/22-rdf-syntax-ns#"
   xmlns:svg="http://www.w3.org/2000/svg"
   xmlns="http://www.w3.org/2000/svg"
   xmlns:sodipodi="http://sodipodi.sourceforge.net/DTD/sodipodi-0.dtd"
   xmlns:inkscape="http://www.inkscape.org/namespaces/inkscape"
   width="1000"
   height="500"
   viewBox="0 0 1000 500.00001"
   id="svg2"
   version="1.1"
   inkscape:version="0.91 r13725"
   sodipodi:docname="halley_icon.svg"
   inkscape:export-filename="C:\Users\amz\Desktop\halley_icon2.png"
   inkscape:export-xdpi="81.910004"
   inkscape:export-ydpi="81.910004">
  <title
     id="title3349">Halley Logo</title>
  <defs
     id="defs4" />
  <sodipodi:namedview
     id="base"
     pagecolor="#ffffff"
     bordercolor="#666666"
     borderopacity="1.0"
     inkscape:pageopacity="0.0"
     inkscape:pageshadow="2"
     inkscape:zoom="1.979899"
     inkscape:cx="518.053"
     inkscape:cy="252.02027"
     inkscape:document-units="px"
     inkscape:current-layer="g8190"
     showgrid="false"
     inkscape:window-width="2560"
     inkscape:window-height="1377"
     inkscape:window-x="1912"
     inkscape:window-y="-8"
     inkscape:window-maximized="1"
     units="px"
     showguides="false" />
  <metadata
     id="metadata7">
    <rdf:RDF>
      <cc:Work
         rdf:about="">
        <dc:format>image/svg+xml</dc:format>
        <dc:type
           rdf:resource="http://purl.org/dc/dcmitype/StillImage" />
        <dc:title>Halley Logo</dc:title>
      </cc:Work>
    </rdf:RDF>
  </metadata>
  <g
     inkscape:groupmode="layer"
     id="layer2"
     inkscape:label="BoxSketch"
     style="display:none"
     sodipodi:insensitive="true">
    <path
       style="fill:none;fill-opacity:1;stroke:#000000;stroke-width:1.00804031"
       d="m 353.84961,164.40039 c -11.92966,62.64988 -23.85701,125.30051 -35.7832,187.95117 106.01823,0 212.03645,0 318.05468,0 11.90957,-63.19217 23.81972,-126.38423 35.73047,-189.57617 -105.89713,0 -211.79427,0 -317.6914,0 l -0.18771,0.98223 -0.12284,0.64277 z"
       id="rect8134"
       inkscape:connector-curvature="0" />
    <path
       style="fill:none;fill-opacity:1;stroke:#000000;stroke-width:1.00804031"
       d="m 340.61523,148.40039 c -13.96088,73.31655 -27.91954,146.63384 -41.87695,219.95117 116.88281,0 233.76563,0 350.64844,0 13.91998,-73.85883 27.84054,-147.71756 41.76172,-221.57617 -116.74089,0 -233.48177,0 -350.22266,0 l -0.18771,0.98223 -0.12284,0.64277 z"
       id="path8147"
       inkscape:connector-curvature="0" />
    <path
       id="path8177"
       d="m 384.2832,87.150391 -25.93554,137.113279 -21.29102,112.5625 41.23047,0 20.89453,-112.5625 1.19336,-6.42969 70.68164,0 c 3.34499,0 5.94417,1.13046 7.80859,3.40235 1.86245,2.26405 2.49964,4.90442 1.91016,7.92969 l -3.4043,18.29492 -0.0605,0 -12.43555,66.7832 c -1.18093,6.23496 0.10125,11.56605 3.82812,16.00781 3.72688,4.44178 8.93314,6.65625 15.60547,6.65625 l 55.77539,-0.0293 42.07813,-0.0234 -18.7168,91.07422 42.44727,0 47.22656,-249.67578 -41.23047,0 -22.08789,118.99218 -49.7168,0 -18.95898,0 c -3.34499,0 -5.94615,-1.13045 -7.81055,-3.40234 -1.86246,-2.26404 -2.4977,-4.90443 -1.9082,-7.92969 l 2.36133,-12.69336 0.0566,0 13.48047,-72.38476 c 1.18091,-6.23496 -0.0993,-11.56606 -3.82617,-16.00782 -3.72685,-4.44176 -8.93314,-6.65625 -15.60547,-6.65624 l -99.85938,0.0527 18.7168,-91.074219 -42.44727,0 z"
       style="fill:none;fill-opacity:1;fill-rule:nonzero;stroke:#000000"
       inkscape:connector-curvature="0" />
    <path
       style="fill:none;fill-opacity:1;fill-rule:nonzero;stroke:#000000"
       d="m 377.3457,80.779297 c -16.64507,88.016123 -33.2961,176.031423 -49.94531,264.046873 19.17839,0 38.35677,0 57.53516,0 7.36233,-39.64215 14.71966,-79.28523 22.08007,-118.92773 21.75997,0.58797 44.21933,-1.55952 65.48829,1.05078 0.86229,6.6834 -3.0289,12.98027 -3.0659,19.70573 -4.26205,25.1842 -10.95283,50.15601 -12.82278,75.63997 1.89204,14.78022 17.66896,25.02942 32.01954,22.61082 27.90494,-0.0141 55.80989,-0.0283 83.71484,-0.0425 -6.23906,30.35544 -12.4771,60.7111 -18.7168,91.06641 19.62826,0 39.25651,0 58.88477,0 16.75371,-88.55839 33.50373,-177.11747 50.25781,-265.67578 -19.17838,0 -38.35677,0 -57.53516,0 -7.36232,39.6415 -14.71966,79.28392 -22.08007,118.92578 -21.13997,-0.37302 -42.37082,1.12184 -63.34961,-0.71875 -1.26301,-6.45681 2.77158,-12.55441 2.75846,-19.04957 4.28354,-25.51941 11.0846,-50.81049 12.99544,-76.62621 -1.89009,-14.78041 -17.6672,-25.03082 -32.01757,-22.61084 -28.57357,0.0142 -57.14714,0.0283 -85.72071,0.0425 6.23906,-30.35545 12.4771,-60.7111 18.7168,-91.066409 -19.63021,0 -39.26042,0 -58.89063,0 l -0.185,0.982738 -0.12164,0.646168 z"
       id="path8180"
       inkscape:connector-curvature="0" />
  </g>
  <g
     inkscape:label="Box"
     id="g8190"
     inkscape:groupmode="layer"
     style="display:inline">
    <path
       style="fill:#fc2847;fill-opacity:1;stroke:none;stroke-width:1.00804031"
       d="m 340.92578,146.77539 -0.1875,0.98242 -0.12305,0.64258 c -13.96088,73.31655 -27.91954,146.63384 -41.87695,219.95117 l 268.7832,0 c 1.09613,-5.33338 2.19291,-10.66662 3.28907,-16 l -252.74414,0 c 11.92619,-62.65066 23.85354,-125.30129 35.7832,-187.95117 l 0.12305,-0.64258 0.1875,-0.98242 7.67578,0 c 1.0088,-5.33339 2.01857,-10.6666 3.02734,-16 l -23.9375,0 z m 81.71875,0 c -1.09612,5.33338 -2.1929,10.66663 -3.28906,16 l 252.49609,0 c -11.91075,63.19194 -23.8209,126.384 -35.73047,189.57617 l -7.79297,0 c -1.00888,5.33338 -2.01844,10.66663 -3.02734,16 l 24.08594,0 C 663.3067,294.49273 677.22726,220.634 691.14844,146.77539 l -268.50391,0 z"
       id="path8194"
       inkscape:connector-curvature="0" />
  </g>
  <g
     inkscape:label="Layer 1"
     inkscape:groupmode="layer"
     id="layer1"
     transform="translate(0,-552.36213)"
     style="display:inline"
     sodipodi:insensitive="true">
    <g
       transform="matrix(1.25,0,0,-1.25,-0.42089966,664.06263)"
       inkscape:label="halley2"
       id="g3344">
      <g
         transform="scale(1,-1)"
         id="g3346">
        <path
           style="fill:none"
           d="m 279.54291,38.706533 261.02345,0.404061 -28.68833,156.371616 -260.21533,0 z"
           id="rect3356"
           inkscape:connector-curvature="0"
           sodipodi:nodetypes="ccccc" />
        <path
           style="fill:#fc2847;fill-opacity:1;fill-rule:nonzero;stroke:none"
           d="m 384.2832,87.150391 -25.93554,137.113279 -21.29102,112.5625 41.23047,0 20.89453,-112.5625 1.19336,-6.42969 70.68164,0 c 3.34499,0 5.94417,1.13046 7.80859,3.40235 1.86245,2.26405 2.49964,4.90442 1.91016,7.92969 l -3.4043,18.29492 -0.0605,0 -12.43555,66.7832 c -1.18093,6.23496 0.10125,11.56605 3.82812,16.00781 3.72688,4.44178 8.93314,6.65625 15.60547,6.65625 l 55.77539,-0.0293 42.07813,-0.0234 -18.7168,91.07422 42.44727,0 47.22656,-249.67578 -41.23047,0 -22.08789,118.99218 -49.7168,0 -18.95898,0 c -3.34499,0 -5.94615,-1.13045 -7.81055,-3.40234 -1.86246,-2.26404 -2.4977,-4.90443 -1.9082,-7.92969 l 2.36133,-12.69336 0.0566,0 13.48047,-72.38476 c 1.18091,-6.23496 -0.0993,-11.56606 -3.82617,-16.00782 -3.72685,-4.44176 -8.93314,-6.65625 -15.60547,-6.65624 l -99.85938,0.0527 18.7168,-91.074219 -42.44727,0 z"
           transform="matrix(0.8,0,0,0.8,0.33671973,-89.3604)"
           id="path3352"
           inkscape:connector-curvature="0" />
      </g>
    </g>
  </g>
</svg>
